<?xml version="1.0" encoding="UTF-8" standalone="no"?>
<!-- Created with Inkscape (http://www.inkscape.org/) -->

<svg
   width="131.99796mm"
   height="84.226746mm"
   viewBox="0 0 131.99796 84.226746"
   version="1.1"
   id="svg1"
   inkscape:version="1.4.3 (0d15f75042, 2025-12-25)"
   sodipodi:docname="logo.svg"
   inkscape:export-filename="logo.png"
   inkscape:export-xdpi="150"
   inkscape:export-ydpi="150"
   xmlns:inkscape="http://www.inkscape.org/namespaces/inkscape"
   xmlns:sodipodi="http://sodipodi.sourceforge.net/DTD/sodipodi-0.dtd"
   xmlns="http://www.w3.org/2000/svg"
   xmlns:svg="http://www.w3.org/2000/svg">
  <sodipodi:namedview
     id="namedview1"
     pagecolor="#ffffff"
     bordercolor="#000000"
     borderopacity="0.25"
     inkscape:showpageshadow="2"
     inkscape:pageopacity="0.0"
     inkscape:pagecheckerboard="0"
     inkscape:deskcolor="#d1d1d1"
     inkscape:document-units="mm"
     inkscape:zoom="0.71268238"
     inkscape:cx="265.89685"
     inkscape:cy="367.6252"
     inkscape:window-width="1920"
     inkscape:window-height="1011"
     inkscape:window-x="0"
     inkscape:window-y="0"
     inkscape:window-maximized="1"
     inkscape:current-layer="layer1" />
  <defs
     id="defs1" />
  <g
     inkscape:label="Calque 1"
     inkscape:groupmode="layer"
     id="layer1"
     transform="translate(-34.674841,-51.324867)">
    <g
       id="g5"
       transform="matrix(0.95061233,-0.23886221,0.32196218,0.97105347,-21.214619,26.968737)">
      <path
         style="fill:none;stroke:#1b2a41;stroke-width:3.94801;stroke-linecap:round;stroke-linejoin:round;stroke-miterlimit:0"
         d="m 85.758749,59.4 h -40.095 l 28.9575,44.55"
         id="path1" />
      <path
         style="fill:none;stroke:#1b2a41;stroke-width:3.94801;stroke-linecap:round;stroke-linejoin:round;stroke-miterlimit:0"
         d="M 120.25151,103.98442 H 160.3465 L 131.389,59.434422"
         id="path1-3" />
      <g
         id="g4"
         style="stroke:#00b4d8;stroke-opacity:1">
        <path
           style="fill:none;stroke:#00b4d8;stroke-width:1.848;stroke-linecap:round;stroke-linejoin:round;stroke-miterlimit:0;stroke-dasharray:none;stroke-opacity:1"
           d="m 62.261572,69.149145 c 3.05367,3.455946 1.694205,-1.377768 2.689798,-1.312903 0.564497,0.03678 2.161031,1.007022 2.891308,1.304487 1.038198,0.422892 2.540646,-0.739831 3.011988,-0.547837 0.470046,0.191463 1.347551,1.203908 1.779914,1.232077 1.105838,0.07205 1.868263,-1.738465 3.0844,-1.659231 1.269494,0.08271 2.062664,1.250499 3.261769,1.328623 0.68832,0.04485 1.609035,-0.841773 2.295198,-0.966574 0.243506,-0.04429 0.501538,0.111112 0.74093,0.04827 0.169274,-0.04443 0.219962,-0.357706 0.394601,-0.346328 1.168203,0.07611 2.519635,0.908234 3.656373,0.982295 0.612012,0.03987 1.659046,-0.635984 2.271059,-0.59611 0.629669,0.04102 1.198519,0.450123 1.828186,0.491148"
           id="path3" />
        <path
           style="fill:none;stroke:#00b4d8;stroke-width:1.848;stroke-linecap:round;stroke-linejoin:round;stroke-miterlimit:0;stroke-dasharray:none;stroke-opacity:1"
           d="m 67.655249,77.222998 c 3.05367,3.45595 1.6942,-1.37776 2.6898,-1.3129 0.56449,0.0368 2.16103,1.00702 2.8913,1.30449 1.0382,0.42289 2.54065,-0.73983 3.01199,-0.54784 0.47005,0.19146 1.34755,1.20391 1.77992,1.23208 1.10583,0.0721 1.86826,-1.73847 3.0844,-1.65923 1.26949,0.0827 2.06266,1.2505 3.26177,1.32862 0.68832,0.0448 1.60903,-0.84177 2.29519,-0.96657 0.24351,-0.0443 0.50154,0.11111 0.74093,0.0483 0.16928,-0.0444 0.21997,-0.35771 0.3946,-0.34633 1.16821,0.0761 2.51964,0.90823 3.65638,0.98229 0.61201,0.0399 1.65904,-0.63598 2.27106,-0.59611 0.62967,0.041 1.19852,0.45013 1.82818,0.49115"
           id="path3-1" />
        <path
           style="fill:none;stroke:#00b4d8;stroke-width:1.848;stroke-linecap:round;stroke-linejoin:round;stroke-miterlimit:0;stroke-dasharray:none;stroke-opacity:1"
           d="m 72.588581,85.699248 c 3.05367,3.45595 1.694205,-1.37776 2.689798,-1.3129 0.564497,0.0368 2.161031,1.00702 2.891308,1.30449 1.038198,0.42289 2.540646,-0.73983 3.011988,-0.54784 0.470046,0.19146 1.347554,1.20391 1.779914,1.23208 1.10584,0.072 1.86826,-1.73847 3.0844,-1.65923 1.26949,0.0827 2.06266,1.2505 3.26177,1.32862 0.68832,0.0448 1.60903,-0.84177 2.2952,-0.96657 0.2435,-0.0443 0.50154,0.11111 0.74093,0.0483 0.16927,-0.0444 0.21996,-0.35771 0.3946,-0.34633 1.1682,0.0761 2.51963,0.90823 3.65637,0.98229 0.61201,0.0399 1.65905,-0.63598 2.27106,-0.59611 0.629667,0.041 1.198514,0.45013 1.828181,0.49115"
           id="path3-3" />
        <path
           style="fill:none;stroke:#00b4d8;stroke-width:1.848;stroke-linecap:round;stroke-linejoin:round;stroke-miterlimit:0;stroke-dasharray:none;stroke-opacity:1"
           d="m 77.786081,94.980498 c 3.05367,3.45595 1.694205,-1.37776 2.689798,-1.3129 0.564497,0.0368 2.161031,1.00702 2.891308,1.30449 1.038198,0.42289 2.540646,-0.73983 3.011988,-0.54784 0.470046,0.19146 1.347554,1.20391 1.779914,1.23208 1.10584,0.072 1.86826,-1.73847 3.0844,-1.65923 1.26949,0.0827 2.06266,1.2505 3.26177,1.32862 0.68832,0.0448 1.60903,-0.84177 2.2952,-0.96657 0.2435,-0.0443 0.50154,0.11111 0.74093,0.0483 0.16927,-0.0444 0.21996,-0.35771 0.3946,-0.34633 1.168197,0.0761 2.519621,0.90823 3.656361,0.98229 0.61201,0.0399 1.65905,-0.63598 2.27106,-0.59611 0.62967,0.041 1.19852,0.45013 1.82819,0.49115"
           id="path3-6" />
      </g>
      <g
         id="g3"
         transform="matrix(1,0,0.14085769,1,-11.508907,0)"
         style="stroke:#00b4d8;stroke-opacity:1">
        <path
           style="fill:none;stroke:#00b4d8;stroke-width:1.848;stroke-linecap:round;stroke-linejoin:round;stroke-miterlimit:0;stroke-dasharray:none;stroke-opacity:1"
           d="m 101.67066,68.128838 c 3.05367,3.45595 1.69421,-1.37777 2.6898,-1.3129 0.5645,0.0368 2.16103,1.00702 2.89131,1.30448 1.0382,0.4229 2.54064,-0.73983 3.01199,-0.54783 0.47004,0.19146 1.34755,1.2039 1.77991,1.23207 1.10584,0.072 1.86826,-1.73846 3.0844,-1.65923 1.26949,0.0827 2.06266,1.2505 3.26177,1.32862 0.68832,0.0448 1.60903,-0.84177 2.2952,-0.96657 0.2435,-0.0443 0.50153,0.11111 0.74093,0.0483 0.16927,-0.0444 0.21996,-0.3577 0.3946,-0.34633 1.1682,0.0761 2.51963,0.90824 3.65637,0.9823 0.61201,0.0399 1.65905,-0.63599 2.27106,-0.59611 0.62967,0.041 1.19852,0.45012 1.82819,0.49115"
           id="path3-2" />
        <path
           style="fill:none;stroke:#00b4d8;stroke-width:1.848;stroke-linecap:round;stroke-linejoin:round;stroke-miterlimit:0;stroke-dasharray:none;stroke-opacity:1"
           d="m 106.94983,77.579253 c 3.05367,3.455946 1.6942,-1.377768 2.6898,-1.312903 0.56449,0.03678 2.16103,1.007022 2.8913,1.304487 1.0382,0.422892 2.54065,-0.739831 3.01199,-0.547837 0.47005,0.191463 1.34755,1.203908 1.77992,1.232077 1.10584,0.07205 1.86826,-1.738465 3.0844,-1.659231 1.26949,0.08271 2.06266,1.250499 3.26177,1.328623 0.68832,0.04485 1.60903,-0.841773 2.29519,-0.966574 0.24351,-0.04429 0.50154,0.111112 0.74093,0.04827 0.16928,-0.04443 0.21997,-0.357706 0.3946,-0.346328 1.16821,0.07611 2.51964,0.908234 3.65638,0.982295 0.61201,0.03987 1.65904,-0.635984 2.27106,-0.59611 0.62967,0.04102 1.19852,0.450123 1.82818,0.491148"
           id="path3-5" />
        <path
           style="fill:none;stroke:#00b4d8;stroke-width:1.848;stroke-linecap:round;stroke-linejoin:round;stroke-miterlimit:0;stroke-dasharray:none;stroke-opacity:1"
           d="m 111.40898,85.588837 c 3.05367,3.455946 1.6942,-1.377768 2.6898,-1.312903 0.56449,0.03678 2.16103,1.007022 2.89131,1.304487 1.03819,0.422892 2.54064,-0.739831 3.01198,-0.547837 0.47005,0.191463 1.34755,1.203908 1.77992,1.232077 1.10583,0.07205 1.86826,-1.738465 3.0844,-1.659231 1.26949,0.08271 2.06266,1.250499 3.26177,1.328623 0.68832,0.04485 1.60903,-0.841773 2.29519,-0.966574 0.24351,-0.04429 0.50154,0.111112 0.74093,0.04827 0.16928,-0.04443 0.21997,-0.357706 0.39461,-0.346328 1.1682,0.07611 2.51963,0.908234 3.65637,0.982295 0.61201,0.03987 1.65904,-0.635984 2.27106,-0.59611 0.62967,0.04102 1.19852,0.450123 1.82818,0.491148"
           id="path3-9" />
        <path
           style="fill:none;stroke:#00b4d8;stroke-width:1.848;stroke-linecap:round;stroke-linejoin:round;stroke-miterlimit:0;stroke-dasharray:none;stroke-opacity:1"
           d="m 116.71191,95.351748 c 3.05367,3.45595 1.69421,-1.37776 2.6898,-1.3129 0.5645,0.0368 2.16103,1.00702 2.89131,1.30449 1.0382,0.42289 2.54064,-0.73983 3.01199,-0.54784 0.47004,0.19146 1.34755,1.20391 1.77991,1.23208 1.10584,0.072 1.86826,-1.73847 3.0844,-1.65923 1.26949,0.0827 2.06266,1.2505 3.26177,1.32862 0.68832,0.0448 1.60903,-0.84177 2.2952,-0.96657 0.2435,-0.0443 0.50154,0.11111 0.74093,0.0483 0.16927,-0.0444 0.21996,-0.35771 0.3946,-0.34633 1.1682,0.0761 2.51963,0.90823 3.65637,0.98229 0.61201,0.0399 1.65905,-0.63598 2.27106,-0.59611 0.62967,0.041 1.19852,0.45013 1.82819,0.49115"
           id="path3-29" />
      </g>
    </g>
    <g
       id="g6"
       transform="translate(-3.1750002,-1.0583333)">
      <text
         xml:space="preserve"
         style="font-weight:bold;font-size:56.8083px;font-family:Caveat;-inkscape-font-specification:'Caveat Bold';text-align:center;letter-spacing:0px;word-spacing:0px;writing-mode:lr-tb;direction:ltr;text-anchor:middle;fill:#1b2a41;fill-opacity:1;stroke:none;stroke-width:6.19973;stroke-linecap:round;stroke-linejoin:round;stroke-miterlimit:0;stroke-dasharray:none;stroke-opacity:1"
         x="71.537132"
         y="132.97493"
         id="text5"><tspan
           sodipodi:role="line"
           id="tspan5"
           style="fill:#1b2a41;fill-opacity:1;stroke:none;stroke-width:6.19973"
           x="71.537132"
           y="132.97493">onix</tspan></text>
      <text
         xml:space="preserve"
         style="font-weight:bold;font-size:56.8083px;font-family:Caveat;-inkscape-font-specification:'Caveat Bold';text-align:center;letter-spacing:0px;word-spacing:0px;writing-mode:lr-tb;direction:ltr;text-anchor:middle;fill:#00b4d8;fill-opacity:1;stroke:none;stroke-width:6.19973;stroke-linecap:round;stroke-linejoin:round;stroke-miterlimit:0;stroke-dasharray:none;stroke-opacity:1"
         x="135.68645"
         y="135.70097"
         id="text5-7"><tspan
           sodipodi:role="line"
           id="tspan5-8"
           style="fill:#00b4d8;fill-opacity:1;stroke:none;stroke-width:6.19973"
           x="135.68645"
           y="135.70097">lib</tspan></text>
    </g>
  </g>
</svg>
